# xmcd
#
# Track frame offsets:
#	150
#	14359
#	26916
#	42951
#	57193
#	69454
#	83014
#	98327
#	115488
#	127161
#	145550
#	163122
#	178966
#	193114
#	207147
#	223417
#	235514
#	250559
#	266188
#	281413
#
# Disc length: 3966 seconds
#
# Revision: 2
# Processed by: cddbd v1.5.2PL0 Copyright (c) Steve Scherf et al.
# Submitted via: EasyCDDAExtractor 12.0.1.1
#
DISCID=240f7c14
DTITLE=Various Artist - Hop Bec 29 '2005
DYEAR=2005
DGENRE=Pop
TTITLE0=Uniting Nations feat. Laura More - Ai No Corrida
TTITLE1=Crazy Frog - Popcorn
TTITLE2=C+C Music Factory and Freedom Williams - Gonna Make You Sweat 2005
TTITLE3=Master Blaster - Since You've Been Gone
TTITLE4=Hi_Tack - Say Say Say (waiting 4U)
TTITLE5=Groove Coverage - On The Radio
TTITLE6=Antibazz vs.Deep Melange - Wonderful Life
TTITLE7=Global Deejays - Stars On 45
TTITLE8=Hypro - The Lion Sleeps Tonight
TTITLE9=Melanie C - MFirst Day Of My Life
TTITLE10=Timo Maas - First Day
TTITLE11=2 Small DJ' - Shining For Love
TTITLE12=Deep Dish - Say Hello
TTITLE13=Sunloverz - Shine On
TTITLE14=Brothers - Don't Stop (best DJ Fm)
TTITLE15=DJ Daz - The Woah Song
TTITLE16=Sylver - Take Me Back
TTITLE17=Danii Minogue and The Soul Seekerz - Perfection
TTITLE18=Lasgo feat. Dave Beyer - Who's That Girl?
TTITLE19=Scooter - Hello! (Good To Be Back)
EXTD=YEAR: 2006
EXTT0=
EXTT1=
EXTT2=
EXTT3=
EXTT4=
EXTT5=
EXTT6=
EXTT7=
EXTT8=
EXTT9=
EXTT10=
EXTT11=
EXTT12=
EXTT13=
EXTT14=
EXTT15=
EXTT16=
EXTT17=
EXTT18=
EXTT19=
PLAYORDER=
